<?xml version="1.0" encoding="utf-8"?>
<!-- Generator: Adobe Illustrator 18.0.0, SVG Export Plug-In . SVG Version: 6.00 Build 0)  -->
<!DOCTYPE svg PUBLIC "-//W3C//DTD SVG 1.1//EN" "http://www.w3.org/Graphics/SVG/1.1/DTD/svg11.dtd">
<svg version="1.1" id="Layer_1" xmlns="http://www.w3.org/2000/svg" xmlns:xlink="http://www.w3.org/1999/xlink" x="0px" y="0px"
	 viewBox="944 524 32 32" style="enable-background:new 944 524 32 32;" xml:space="preserve">
<g>
	<path style="fill:#FFFFFF;" d="M973.6,550.8c-1.5,0-2.4-0.8-2.5-1.9h1.4c0,0.3,0.2,0.8,1.1,0.9c0.6,0,0.9-0.4,0.9-0.6
		c0-0.4-0.6-0.5-1.1-0.6c-0.6-0.1-1.1-0.2-1.4-0.4c-0.4-0.2-0.8-0.7-0.8-1.3c0-1,0.8-1.7,2.3-1.7c1.4,0,2.2,0.7,2.3,1.8h-1.4
		c0-0.3-0.1-0.7-0.9-0.7c-0.5,0-0.9,0.1-0.9,0.5c0,0.6,1.1,0.5,2,0.8c0.8,0.2,1.4,0.7,1.4,1.5C976,550.3,974.9,550.8,973.6,550.8
		L973.6,550.8z"/>
	<polygon style="fill:#FFFFFF;" points="947.5,541.8 952.2,539 954.7,543.4 948.4,543.4 	"/>
	<polygon style="fill:#FFFFFF;" points="958,550.7 956.7,550.7 956.7,545.2 958,545.2 	"/>
	<path style="fill:#FFFFFF;" d="M945.3,548c0,0.8,0.7,1.5,1.6,1.5c0.9,0,1.6-0.7,1.6-1.5s-0.7-1.6-1.6-1.6
		C946,546.4,945.3,547.1,945.3,548L945.3,548z M946.8,550.8c-1.5,0-2.8-1.3-2.8-2.8c0-1.6,1.3-2.8,2.8-2.8c0.6,0,1.1,0.2,1.6,0.5
		v-0.4h1.3v5.5h-1.3v-0.4C948,550.6,947.4,550.8,946.8,550.8L946.8,550.8z"/>
	<polygon style="fill:#FFFFFF;" points="965,543.4 958.4,531.9 963.1,529.2 971.3,543.4 	"/>
	<path style="fill:#FFFFFF;" d="M951.5,548c0,0.8,0.7,1.5,1.6,1.5c0.8,0,1.6-0.7,1.6-1.5s-0.7-1.6-1.6-1.6
		C952.3,546.4,951.5,547.1,951.5,548L951.5,548z M953.1,550.8c-1.6,0-2.8-1.3-2.8-2.8c0-1.6,1.3-2.8,2.8-2.8c0.6,0,1.1,0.2,1.6,0.5
		v-2.3h1.4v7.3h-1.4v-0.4C954.2,550.6,953.7,550.8,953.1,550.8L953.1,550.8z"/>
	<polygon style="fill:#FFFFFF;" points="953,536.9 957.7,534.2 963,543.4 958,543.4 958,544.7 956.7,544.7 956.7,543.4 	"/>
	<path style="fill:#FFFFFF;" d="M966.1,548c0,0.8,0.7,1.5,1.6,1.5c0.8,0,1.5-0.7,1.5-1.5s-0.7-1.6-1.5-1.6
		C966.8,546.4,966.1,547.1,966.1,548L966.1,548z M967.6,550.8c-1.5,0-2.8-1.3-2.8-2.8c0-1.6,1.3-2.8,2.8-2.8c0.6,0,1.1,0.2,1.6,0.5
		v-0.4h1.4v5.5h-1.4v-0.4C968.8,550.6,968.2,550.8,967.6,550.8L967.6,550.8z"/>
	<path style="fill:#FFFFFF;" d="M959.9,548c0,0.8,0.7,1.5,1.5,1.5c0.9,0,1.6-0.7,1.6-1.5s-0.7-1.6-1.6-1.6
		C960.6,546.4,959.9,547.1,959.9,548L959.9,548z M963,543.4h1.3v7.3H963v-0.4c-0.4,0.3-1,0.5-1.6,0.5c-1.5,0-2.8-1.3-2.8-2.8
		c0-1.6,1.3-2.8,2.8-2.8c0.6,0,1.1,0.2,1.6,0.5V543.4L963,543.4z"/>
</g>
</svg>
